<svg width="1200" height="900" viewBox="0 0 1200 900" fill="none" xmlns="http://www.w3.org/2000/svg">
  <defs>
    <!-- Purple gradient for screens -->
    <linearGradient id="purpleGradient" x1="0%" y1="0%" x2="100%" y2="100%">
      <stop offset="0%" stop-color="#a855f7"/>
      <stop offset="50%" stop-color="#8b5cf6"/>
      <stop offset="100%" stop-color="#7c3aed"/>
    </linearGradient>
    
    <!-- Business person image background -->
    <linearGradient id="businessBg" x1="0%" y1="0%" x2="100%" y2="100%">
      <stop offset="0%" stop-color="#f8fafc"/>
      <stop offset="100%" stop-color="#e2e8f0"/>
    </linearGradient>
    
    <!-- Frame sheen -->
    <linearGradient id="frameSheen" x1="0%" y1="0%" x2="100%" y2="100%">
      <stop offset="0%" stop-color="#ffffff" stop-opacity="0.25"/>
      <stop offset="100%" stop-color="#ffffff" stop-opacity="0.05"/>
    </linearGradient>
    
    <!-- Soft shadow filter -->
    <filter id="softShadow" x="-100%" y="-100%" width="300%" height="300%">
      <feGaussianBlur stdDeviation="25" result="blur"/>
      <feOffset dy="30" result="offset"/>
      <feColorMatrix type="matrix" values="0 0 0 0 0  0 0 0 0 0  0 0 0 0 0  0 0 0 0.4 0"/>
      <feBlend in="SourceGraphic" mode="normal"/>
    </filter>
    
    <!-- Inner shadow for screen recess -->
    <filter id="innerShadow" x="-50%" y="-50%" width="200%" height="200%">
      <feOffset dy="2"/>
      <feGaussianBlur stdDeviation="3" result="blur"/>
      <feComposite in2="SourceAlpha" operator="arithmetic" k2="-1" k3="1"/>
      <feColorMatrix type="matrix" values="0 0 0 0 0  0 0 0 0 0  0 0 0 0 0  0 0 0 0.6 0"/>
      <feComposite in2="SourceGraphic" operator="over"/>
    </filter>
  </defs>

  <!-- VERTICAL PHONE (front) - tamanho original, apenas corrigindo a ponta roxa -->
  <g transform="translate(350,450) rotate(-15)" filter="url(#softShadow)">
    <!-- Phone frame (space gray) -->
    <rect x="-170" y="-340" width="340" height="680" rx="50" fill="#2d3748" stroke="#4a5568" stroke-width="2"/>
    
    <!-- Screen bezel -->
    <rect x="-155" y="-325" width="310" height="650" rx="42" fill="#000000"/>
    
    <!-- Screen with business content -->
    <rect x="-145" y="-315" width="290" height="630" rx="35" fill="url(#businessBg)"/>
    
    <!-- Simulated business person figure -->
    <ellipse cx="0" cy="-50" rx="50" ry="70" fill="#64748b" opacity="0.3"/>
    <circle cx="0" cy="-100" r="30" fill="#64748b" opacity="0.4"/>
    <rect x="-25" y="-40" width="50" height="60" rx="5" fill="#1e293b" opacity="0.5"/>
    
    <!-- App interface elements -->
    <rect x="-120" y="80" width="240" height="10" rx="5" fill="#e2e8f0"/>
    <rect x="-120" y="105" width="180" height="10" rx="5" fill="#cbd5e1"/>
    <rect x="-120" y="130" width="200" height="10" rx="5" fill="#e2e8f0"/>
    <rect x="-120" y="155" width="160" height="10" rx="5" fill="#cbd5e1"/>
    
    <!-- Glass overlay -->
    <rect x="-145" y="-315" width="290" height="630" rx="35" fill="url(#frameSheen)" opacity="0.4"/>
    
    <!-- Notch -->
    <rect x="-50" y="-325" width="100" height="28" rx="14" fill="#000000"/>
    
    <!-- Home indicator -->
    <rect x="-60" y="300" width="120" height="4" rx="2" fill="#ffffff" opacity="0.6"/>
  </g>

  <!-- HORIZONTAL PHONE (background, rotated) - tamanho original, apenas corrigindo posição do notch -->
  <g transform="translate(750,350) rotate(25)" filter="url(#softShadow)">
    <!-- Phone frame -->
    <rect x="-340" y="-170" width="680" height="340" rx="50" fill="#2d3748" stroke="#4a5568" stroke-width="2"/>
    
    <!-- Screen bezel -->
    <rect x="-325" y="-155" width="650" height="310" rx="42" fill="#000000"/>
    
    <!-- Screen with purple gradient -->
    <rect x="-315" y="-145" width="630" height="290" rx="35" fill="url(#purpleGradient)"/>
    
    <!-- Subtle app interface elements -->
    <circle cx="0" cy="0" r="50" fill="#ffffff" opacity="0.1"/>
    <circle cx="0" cy="0" r="30" fill="#ffffff" opacity="0.15"/>
    <circle cx="0" cy="0" r="15" fill="#ffffff" opacity="0.2"/>
    
    <!-- Interface lines -->
    <rect x="-200" y="-80" width="400" height="6" rx="3" fill="#ffffff" opacity="0.1"/>
    <rect x="-200" y="-60" width="300" height="6" rx="3" fill="#ffffff" opacity="0.08"/>
    <rect x="-200" y="-40" width="350" height="6" rx="3" fill="#ffffff" opacity="0.1"/>
    
    <!-- Glass overlay -->
    <rect x="-315" y="-145" width="630" height="290" rx="35" fill="url(#frameSheen)" opacity="0.3"/>
    
    <!-- Notch (corrigido - posicionado melhor no lado) -->
    <rect x="-325" y="-40" width="22" height="80" rx="11" fill="#000000"/>
    
    <!-- Home indicator -->
    <rect x="290" y="-20" width="4" height="40" rx="2" fill="#ffffff" opacity="0.6"/>
  </g>
</svg>


